<svg width="24" height="24" viewBox="0 0 24 24" fill="none" xmlns="http://www.w3.org/2000/svg">
<g id="lets-icons:refund-back">
<path id="Vector" d="M6.77835 10.1899L6.25929 10.709L5.74023 10.1899L6.25929 9.67086L6.77835 10.1899ZM10.4492 19C10.2545 19 10.0678 18.9227 9.93008 18.785C9.7924 18.6473 9.71505 18.4605 9.71505 18.2658C9.71505 18.0711 9.7924 17.8844 9.93008 17.7467C10.0678 17.609 10.2545 17.5317 10.4492 17.5317V19ZM9.93016 14.3798L6.25929 10.709L7.29742 9.67086L10.9683 13.3417L9.93016 14.3798ZM6.25929 9.67086L9.93016 6L10.9683 7.03812L7.29742 10.709L6.25929 9.67086ZM6.77835 9.45575H14.4872V10.9241H6.77835V9.45575ZM14.4872 19H10.4492V17.5317H14.4872V19ZM19.2593 14.2279C19.2593 15.4935 18.7565 16.7073 17.8616 17.6023C16.9666 18.4972 15.7528 19 14.4872 19V17.5317C14.921 17.5317 15.3506 17.4462 15.7515 17.2802C16.1523 17.1141 16.5165 16.8708 16.8233 16.564C17.1301 16.2572 17.3734 15.893 17.5395 15.4922C17.7055 15.0913 17.7909 14.6617 17.7909 14.2279H19.2593ZM14.4872 9.45575C15.7528 9.45575 16.9666 9.95853 17.8616 10.8535C18.7565 11.7484 19.2593 12.9622 19.2593 14.2279H17.7909C17.7909 13.794 17.7055 13.3644 17.5395 12.9636C17.3734 12.5627 17.1301 12.1985 16.8233 11.8918C16.5165 11.585 16.1523 11.3416 15.7515 11.1756C15.3506 11.0096 14.921 10.9241 14.4872 10.9241V9.45575Z" fill="#282828"/>
</g>
</svg>
