<svg width="30" height="13" viewBox="0 0 30 13" fill="none" xmlns="http://www.w3.org/2000/svg">
<g id="_?&#235;&#141;&#137;&#236;&#148;&#160;??1" clip-path="url(#clip0_275_41)">
<path id="Vector" d="M4.99579 2.89219C4.99579 2.89219 4.01177 2.89219 3.11753 3.78153V0.214844H0.916748V9.57529H3.14135V8.84103C3.14135 8.84103 3.66726 9.8107 4.99396 9.8107C4.99396 9.8107 8.09814 9.69113 8.09814 6.30941C8.09814 6.30941 7.98453 2.89033 4.99396 2.89033M4.50836 7.83025C3.7259 7.83025 3.0937 7.18567 3.0937 6.38975C3.0937 5.59383 3.7259 4.94551 4.50836 4.94551C5.29082 4.94551 5.92485 5.5901 5.92485 6.38975C5.92485 7.18941 5.29082 7.83025 4.50836 7.83025Z" fill="white"/>
<path id="Vector_2" d="M8.80908 0V2.16916C8.80908 2.16916 9.81144 2.12245 9.81144 4.03564V9.57531H11.9371V3.52185C11.9371 3.52185 12.0305 0 8.80908 0Z" fill="white"/>
<path id="Vector_3" d="M17.1321 2.92383C17.1321 2.92383 13.4892 2.92383 13.4892 6.38962C13.4892 6.38962 13.3737 9.81245 17.1321 9.81245C17.1321 9.81245 20.8575 9.80684 20.8575 6.38962C20.8575 6.38962 20.9802 2.92383 17.1321 2.92383ZM17.1339 7.83012C16.3496 7.83012 15.7174 7.18554 15.7174 6.38962C15.7174 5.5937 16.3478 4.94539 17.1339 4.94539C17.92 4.94539 18.5486 5.58997 18.5486 6.38962C18.5486 7.18928 17.9164 7.83012 17.1339 7.83012Z" fill="white"/>
<path id="Vector_4" d="M26.9395 3.14265V3.78163C26.9395 3.78163 26.3055 2.92405 25.0887 2.92405C25.0887 2.92405 21.9717 2.78579 21.9717 6.36369C21.9717 6.36369 21.9387 9.6987 25.0026 9.6987C25.0026 9.6987 26.2523 9.74915 26.9395 8.84113V9.36613C26.9395 9.36613 27.0952 11.0084 25.5358 11.0084H25.0026V12.9982H25.862C25.862 12.9982 29.0835 13.0337 29.0835 9.48944V3.14265H26.9395ZM25.6238 7.83035C24.8432 7.83035 24.2073 7.18577 24.2073 6.38985C24.2073 5.59393 24.8432 4.94561 25.6238 4.94561C26.4044 4.94561 27.0384 5.59019 27.0384 6.38985C27.0384 7.1895 26.4062 7.83035 25.6238 7.83035Z" fill="white"/>
</g>
<defs>
<clipPath id="clip0_275_41">
<rect width="28.1667" height="13" fill="white" transform="translate(0.916748)"/>
</clipPath>
</defs>
</svg>
