<svg width="20" height="22" viewBox="0 0 20 22" fill="none" xmlns="http://www.w3.org/2000/svg">
<path id="Vector" d="M10 -0.000976562C4.47676 -0.000976562 0 4.30743 0 9.61943C0 13.5434 1.57923 15.4177 3.74558 17.1252L3.75646 17.1309V21.7361C3.75646 21.9538 3.99565 22.0782 4.16146 21.9481L7.95325 19.0193L8.03479 19.0561C8.67083 19.1776 9.32862 19.2427 10 19.2427C15.5232 19.2427 20 14.9343 20 9.62226C20 4.31025 15.5232 -0.000976562 10 -0.000976562ZM6.64855 12.0563C7.62979 12.0563 8.46697 11.4457 8.71976 10.5043H10.1685C9.81517 12.3192 8.4561 13.5066 6.64855 13.5066C4.54743 13.5066 2.88122 11.8754 2.88122 9.60812C2.88122 7.34084 4.54743 5.70964 6.64855 5.70964C8.47513 5.70964 9.84235 6.92244 10.1794 8.76849H8.73335C8.51318 7.76489 7.6461 7.14012 6.64855 7.14012C5.23512 7.14012 4.29464 8.18895 4.29464 9.60812C4.29464 11.0273 5.36287 12.0563 6.64855 12.0563ZM16.2028 13.3596H14.8736V10.2414C14.8736 9.52331 14.4713 9.13883 13.8543 9.13883C13.1639 9.13883 12.7208 9.57702 12.7208 10.4675V13.3596H11.3917V5.73508H12.7208V8.60452C13.0389 8.10131 13.5553 7.85536 14.2566 7.85536C14.822 7.85536 15.2868 8.0476 15.6483 8.44338C16.0207 8.83917 16.2055 9.3763 16.2055 10.0718V13.3596H16.2028Z" fill="white"/>
</svg>
